PathFileType	4	(X/Y/Z)	38_1_42_p0_0-315_filt_butterworth.trc
DataRate	CameraRate	NumFrames	NumMarkers	Units	OrigDataRate	OrigDataStartFrame	OrigNumFrames
56.0	56.0	6	27	m	56.0	0	315
Frame#	Time	RHip			RKnee			RAnkle			RBigToe			RSmallToe			RHeel			LHip			LKnee			LAnkle			LBigToe			LSmallToe			LHeel			Neck			Head			Nose			RShoulder			RElbow			RWrist			RThumb			RIndex			RPinky			LShoulder			LElbow			LWrist			LThumb			LIndex			LPinky			
		X1	Y1	Z1	X2	Y2	Z2	X3	Y3	Z3	X4	Y4	Z4	X5	Y5	Z5	X6	Y6	Z6	X7	Y7	Z7	X8	Y8	Z8	X9	Y9	Z9	X10	Y10	Z10	X11	Y11	Z11	X12	Y12	Z12	X13	Y13	Z13	X14	Y14	Z14	X15	Y15	Z15	X16	Y16	Z16	X17	Y17	Z17	X18	Y18	Z18	X19	Y19	Z19	X20	Y20	Z20	X21	Y21	Z21	X22	Y22	Z22	X23	Y23	Z23	X24	Y24	Z24	X25	Y25	Z25	X26	Y26	Z26	X27	Y27	Z27	
0	0.0	0.39546802671539344	0.7258422862387208	0.5290565903091806	0.3985574335681815	0.9062882573506283	0.9533322376699902	0.353333971840729	1.061711009501587	1.3656890773193313	0.31661204053945985	0.875078339739044	1.4331393113784991	0.3779681277581993	0.9042752151827927	1.4381794837247674	0.34452721447814993	1.1646895697019746	1.4026849077536891	0.17682969352150701	0.786777496924668	0.5246005752539405	0.18631851080835554	0.9279318960367839	0.9517708510147487	0.18692576719285042	1.051047139917219	1.3307021809141677	0.17353932673591804	0.8838326069516462	1.4165276204508201	0.12410067580463252	0.9190092188078385	1.4110399225863617	0.20721948359064724	1.1552577787423173	1.4056010204718252	0.2953842642904852	0.5746505699060652	-0.09170552827906873	0.3065271744674889	0.46754921285673723	-0.34063057479322995	0.2915699115400024	0.4417131757621417	-0.18188102860657038	0.46832076878195017	0.6090076900212322	0.013876267626365133	0.5093442314095624	0.6185755437578739	0.30092455457420464	0.32727715052634276	0.5834124667632576	0.5129061658700308	0.21721230176773126	0.6585318785929496	0.5892207894674414	0.21882259659630895	0.6477376399762601	0.612768907833658	0.24397776217344763	0.6233993516312017	0.6214317977860108	0.12780615250927546	0.6538621785943128	-0.01611154452475922	0.07911873379346915	0.6713256512768022	0.26023277827062885	0.19795438945408864	0.6512774498255735	0.5104970931087852	0.27217366040750346	0.620033116269559	0.5929313037755266	0.26657449192871097	0.6127663601018093	0.6201426071033582	0.22456256043300102	0.6345041212240076	0.6181556689151924
1	0.0178571428571428	0.3953405894707809	0.7265469862216564	0.5322394872362504	0.39847115687350565	0.9084973969021044	0.9578955638951268	0.35370325079694914	1.0625248914713739	1.3670818898814374	0.31958398054915493	0.8827582753257407	1.4341757595298232	0.38062090014779393	0.9115247132600013	1.4394571951411261	0.34408152531290903	1.1487942343524598	1.402245804335922	0.17672617210138508	0.786597928210184	0.5246367848982995	0.18555425626632216	0.927566562494736	0.9517109385713273	0.18713522854614906	1.0521022049659916	1.32950838907324	0.17228546873938202	0.8936938976295922	1.4171443490051143	0.12230857689419515	0.9292540878412086	1.409155290893817	0.20704135983044755	1.1543313617637156	1.404490486595706	0.29706460048393407	0.5670206984932048	-0.08926016705747634	0.3085020791779618	0.47116120827478125	-0.3419862731351595	0.2886882469207133	0.43467848690329813	-0.1802253610628718	0.46826785623489003	0.6088640394334207	0.012640226876282527	0.5121337705664617	0.6186683594753848	0.2996884067765547	0.3281879040042042	0.5783680053935896	0.5104035196580825	0.21926473279113567	0.6413657444569671	0.5899006487370476	0.2201018409615103	0.6381529668183042	0.6123212707310663	0.24665130965042625	0.6244448162409584	0.6235247539022571	0.12785934587505743	0.6534702629815057	-0.018411810946968643	0.07602300606988562	0.6694184865466648	0.25908266507397126	0.19806328669540804	0.6516916778084707	0.5082053867486389	0.27049096070277606	0.6182145533439654	0.5924995752750475	0.26320388374439274	0.619568466549246	0.6201019256805087	0.22663570949499107	0.6247857897428015	0.6145076175577378
2	0.0357142857142857	0.39532727646532945	0.7268623419181315	0.5327401456944573	0.39847471628825376	0.9099073666845827	0.9606732052704301	0.3537430727939189	1.0625439410959256	1.3671058717961437	0.32123188366322813	0.8869516045135676	1.4340582400606683	0.3810291567028184	0.9128311492282516	1.4394771963949395	0.34370051991141504	1.1443867609528446	1.4024514672138007	0.17664240415979113	0.7864958083631969	0.5246442884451124	0.18414708681784842	0.92699676346404	0.9515626107248459	0.18705319715106195	1.052064980874226	1.328828353669243	0.17154162948617963	0.8995853533732197	1.4175667243891819	0.12134818496850101	0.9348428323103278	1.4089442739454412	0.2066832580094875	1.1529362368137164	1.402630420062859	0.29796768121567785	0.5624347834318488	-0.08840854122119991	0.3103889351069641	0.47493011189205253	-0.34324049417037167	0.28709457552559997	0.4308006749275858	-0.1793172645971543	0.4682605496862534	0.6087447912049674	0.01142570789255668	0.5144908627614744	0.618795413959596	0.2985256266686516	0.3291727520463715	0.5734113341794352	0.5082324353397992	0.22185030629912636	0.6345906150267437	0.5898906080005324	0.22198148142993385	0.6357586190464855	0.6122472778541915	0.2471834830731346	0.6246209598663715	0.6240384467365244	0.12789611258580025	0.6532793686216052	-0.01971843628988532	0.07419721634891951	0.6684338268325878	0.258602815592533	0.19753676279384522	0.6548007075658505	0.5069239538143233	0.26932217082394716	0.6202728398067486	0.5915413589601343	0.2609874643592561	0.6231298144869217	0.6199709350851617	0.2278010108176191	0.6193886926423611	0.6125705681182521
3	0.0535714285714285	0.3954037018744073	0.7268637999010126	0.5314249608288095	0.398620875397075	0.9106379278233111	0.9618796939914626	0.3535594130625609	1.0620477535444732	1.3662514864690771	0.3213766616040654	0.8874345132170471	1.4332154301469695	0.37957957128828246	0.9090964827238476	1.4387059464422323	0.3437802933378549	1.1515305434804886	1.4033138260370517	0.1765991012672508	0.7864541149746341	0.5246494533848509	0.18237105658563058	0.9263802053894179	0.9513869187431201	0.186806113088616	1.0512009556127797	1.3290179287542767	0.17138252563218548	0.9009541812254814	1.4176669432511462	0.1212188096657962	0.935660450442634	1.410166135948532	0.20642347135571232	1.151648489973915	1.4013993474490274	0.2981125288982628	0.5611473095549675	-0.08880702411090916	0.31164086060713253	0.47778754767099973	-0.3440097189969055	0.28715177131699077	0.4309699011264557	-0.1793626941291354	0.4682854515369145	0.6086564478805505	0.01058560310934794	0.5161351806414785	0.6189032639633173	0.2977689240099541	0.33024355107019554	0.5700477665788395	0.5066110050211796	0.2249004387228054	0.6357778935577426	0.5893003363686871	0.22422557338297494	0.6380260469571883	0.6124026577743582	0.24577972703285658	0.623998165750349	0.6230131672769536	0.12790498680667553	0.6532675164932611	-0.02001119937718156	0.07379364111080965	0.6685285140606401	0.2590154117298564	0.19647099138493307	0.6599161852335196	0.5066536937857975	0.26915759031554726	0.6248492157418345	0.5902109841935123	0.2605304316345774	0.6236808764803627	0.6198166569334413	0.2281576226321662	0.6184638914294893	0.6123227344569292
4	0.0714285714285714	0.3954669266688413	0.7268046806264191	0.5308957788664301	0.3988231692956867	0.9110129375193068	0.9623737048698113	0.35339481120863464	1.0616161943007336	1.3656745742114114	0.320172245176767	0.885401049966467	1.4325574348171763	0.3781666441190704	0.9052380005493683	1.4381652727661969	0.3441606048402907	1.1609588957555175	1.4042285033236086	0.17661208789738506	0.7864216244196179	0.5246905309428397	0.18110095409203023	0.9260135373637116	0.9512864689455509	0.18664547957953048	1.0503421949689375	1.3296402293864364	0.1717078202880901	0.8988138683439594	1.4171693727761423	0.12142294960123207	0.9345426623627265	1.4113791140959235	0.20658389471465244	1.1510310300862803	1.4023824740133404	0.2979806776377625	0.5614558957619238	-0.08931228688969939	0.31201696707702103	0.4790565233086844	-0.3441547422435638	0.2884728728790114	0.43422488577456586	-0.18013023776984208	0.46829105282523875	0.6085043138214337	0.010311051007727359	0.516875944655681	0.618908110555848	0.2974376053842954	0.33154209367992177	0.5689887626181113	0.505713140218837	0.22778285636378387	0.6360542000659459	0.5887144820081148	0.22641651299924398	0.6380194614430807	0.612371124210571	0.2442602908258958	0.6232105216052918	0.621597636889917	0.1278938081174076	0.6533037160758908	-0.019906260990596482	0.07436973383740703	0.669149944614655	0.259745585347272	0.19553126361233839	0.663760381209405	0.5067751202938885	0.26962554793269483	0.6256415863002965	0.5890890962018281	0.2612026240214342	0.6232887500691866	0.6197373517862724	0.22849000012289777	0.6191824247520065	0.6122138838559721
5	0.0892857142857142	0.39549026110680563	0.7267610893794855	0.5320632623125509	0.39897108423388916	0.911128780010214	0.962501992489607	0.3533059945642628	1.061368356434988	1.3658415996806976	0.31763415408712486	0.8813934145334609	1.4322870789331585	0.37765715194004523	0.9036644338898496	1.4380721456017231	0.34437049094326744	1.1656608358967115	1.4049789202322125	0.1766889223732911	0.7864532329337207	0.524776280706637	0.18069678959674276	0.9259413080617389	0.951263860836233	0.18660655633769355	1.049872413456222	1.3299979279197398	0.17247511372136615	0.8937409538198555	1.4158086638362664	0.12160793935114103	0.933610321927453	1.411843533537834	0.20705507599013123	1.1509691469024412	1.4049736374333035	0.2978865894971488	0.5619394320155902	-0.08948840701533839	0.3118963478482152	0.4793000027330925	-0.3439799960514646	0.2902153664648187	0.4384848654083966	-0.18112654294248437	0.46825154785557727	0.6082005969701032	0.010384577019193998	0.5168997065742567	0.6188358130790593	0.2970466915515344	0.33295776219417444	0.5692018509513412	0.5054695059978014	0.22980856869579958	0.6332993652404211	0.5887046517962163	0.2281952260680443	0.6351034599611782	0.6120744266075844	0.24397591661511586	0.6226841896897352	0.6206762507414562	0.1278835517870484	0.6533188711063864	-0.01985154907074621	0.07565141246289817	0.6698277919566956	0.2601378641858644	0.19539012180255116	0.6638309840467465	0.5068568072313094	0.26969315819261463	0.6198261365481325	0.5884740101037186	0.26215389333645056	0.6228331613414216	0.6197414502235296	0.22935108944610946	0.6193627958266973	0.611314398650471
